# xmcd
#
# Track frame offsets:
#  150
#  9521
#  22960
#  35630
#  46506
#  60279
#  71533
#  85262
#  99361
#  109734
#  122969
#  133530
#  144598
#  157666
#  169273
#
# Disc length: 2405 seconds
#
# Revision: 4
# Processed by: cddbd v1.5.2PL0 Copyright (c) Steve Scherf et al.
# Submitted via: AltoMP3_Maker 3.0
#
DISCID=b509630f
DTITLE=Various Artist - Superstars of Countrie
DYEAR=2001
DGENRE=Country
TTITLE0=Your Good Girl's Gonna Go Bad
TTITLE1=Gentle On My Mind
TTITLE2=The One On The Right Is The One On The Left
TTITLE3=Just Someone I Used To Know
TTITLE4=I Walk Alone
TTITLE5=She Still Comes Around
TTITLE6=Ballad Of Forty Dollars
TTITLE7=I'm So Afraid Of Losing You Again
TTITLE8=Walk Through This World With Me
TTITLE9=Woman Of The World
TTITLE10=Pop A Top
TTITLE11=Somebody Like Me
TTITLE12=Statue Of A Fool
TTITLE13=Darling, You Know I Wouldn't Lie To You
TTITLE14=The Party's Over
EXTD=
EXTT0=
EXTT1=
EXTT2=
EXTT3=
EXTT4=
EXTT5=
EXTT6=
EXTT7=
EXTT8=
EXTT9=
EXTT10=
EXTT11=
EXTT12=
EXTT13=
EXTT14=
PLAYORDER=
